<mxfile host="app.diagrams.net" modified="2023-05-03T16:35:16.427Z" agent="Mozilla/5.0 (Windows NT 10.0; Win64; x64) AppleWebKit/537.36 (KHTML, like Gecko) Chrome/113.0.0.0 Safari/537.36 Edg/113.0.1774.27" etag="RPZRGX8T-Ftk5gEq1gWH" version="21.2.4" type="github">
  <diagram name="Página-1" id="6GFAWBEztPox5gARo7rp">
    <mxGraphModel dx="288" dy="2908" grid="1" gridSize="10" guides="1" tooltips="1" connect="1" arrows="1" fold="1" page="1" pageScale="1" pageWidth="827" pageHeight="1169" math="0" shadow="0">
      <root>
        <mxCell id="0" />
        <mxCell id="1" parent="0" />
        <mxCell id="9oo5o4xEghoSklG43QRZ-163" value="" style="group" vertex="1" connectable="0" parent="1">
          <mxGeometry x="770" y="-1139" width="490" height="530" as="geometry" />
        </mxCell>
        <mxCell id="9oo5o4xEghoSklG43QRZ-161" value="&lt;b&gt;&lt;br&gt;&lt;/b&gt;" style="rounded=0;whiteSpace=wrap;html=1;" vertex="1" parent="9oo5o4xEghoSklG43QRZ-163">
          <mxGeometry x="-120" y="-101" width="610" height="631" as="geometry" />
        </mxCell>
        <mxCell id="9oo5o4xEghoSklG43QRZ-164" value="" style="rounded=0;whiteSpace=wrap;html=1;fontSize=20;align=center;fillColor=#97D077;container=0;" vertex="1" parent="9oo5o4xEghoSklG43QRZ-163">
          <mxGeometry width="40" height="40" as="geometry" />
        </mxCell>
        <mxCell id="9oo5o4xEghoSklG43QRZ-165" value="20" style="rounded=0;whiteSpace=wrap;html=1;fontSize=20;align=center;gradientColor=#97d077;fillColor=none;imageWidth=20;imageHeight=20;container=0;" vertex="1" parent="9oo5o4xEghoSklG43QRZ-163">
          <mxGeometry x="2" y="2" width="36" height="36" as="geometry" />
        </mxCell>
        <mxCell id="9oo5o4xEghoSklG43QRZ-166" value="" style="endArrow=none;html=1;fontSize=12;rounded=0;" edge="1" parent="9oo5o4xEghoSklG43QRZ-163">
          <mxGeometry width="50" height="50" as="geometry">
            <mxPoint x="10" y="60" as="sourcePoint" />
            <mxPoint x="30" y="60" as="targetPoint" />
          </mxGeometry>
        </mxCell>
        <mxCell id="9oo5o4xEghoSklG43QRZ-167" value="RE_BEMG" style="text;html=1;strokeColor=none;fillColor=none;align=left;verticalAlign=middle;rounded=0;fontSize=12;container=0;" vertex="1" parent="9oo5o4xEghoSklG43QRZ-163">
          <mxGeometry x="40" y="50" width="40" height="20" as="geometry" />
        </mxCell>
        <mxCell id="9oo5o4xEghoSklG43QRZ-168" style="edgeStyle=none;rounded=0;orthogonalLoop=1;jettySize=auto;html=1;exitX=0.5;exitY=1;exitDx=0;exitDy=0;endArrow=none;endFill=0;fontSize=12;" edge="1" parent="9oo5o4xEghoSklG43QRZ-163" source="9oo5o4xEghoSklG43QRZ-164">
          <mxGeometry as="geometry">
            <mxPoint x="20" y="80" as="targetPoint" />
          </mxGeometry>
        </mxCell>
        <mxCell id="9oo5o4xEghoSklG43QRZ-157" value="" style="rounded=0;whiteSpace=wrap;html=1;" vertex="1" parent="1">
          <mxGeometry x="60" y="-1240" width="450" height="720" as="geometry" />
        </mxCell>
        <mxCell id="9oo5o4xEghoSklG43QRZ-29" value="" style="rounded=1;whiteSpace=wrap;html=1;" vertex="1" parent="1">
          <mxGeometry x="188" y="-1470" width="300" height="130" as="geometry" />
        </mxCell>
        <mxCell id="9oo5o4xEghoSklG43QRZ-1" value="" style="group" vertex="1" connectable="0" parent="1">
          <mxGeometry x="140" y="-1080" width="300" height="200" as="geometry" />
        </mxCell>
        <mxCell id="9oo5o4xEghoSklG43QRZ-2" value="" style="rounded=0;whiteSpace=wrap;html=1;fontSize=20;align=center;fillColor=#97D077;container=0;" vertex="1" parent="9oo5o4xEghoSklG43QRZ-1">
          <mxGeometry x="90" width="40" height="40" as="geometry" />
        </mxCell>
        <mxCell id="9oo5o4xEghoSklG43QRZ-4" value="" style="endArrow=none;html=1;fontSize=12;rounded=0;" edge="1" parent="9oo5o4xEghoSklG43QRZ-1">
          <mxGeometry x="90" width="50" height="50" as="geometry">
            <mxPoint x="100" y="60" as="sourcePoint" />
            <mxPoint x="120" y="60" as="targetPoint" />
          </mxGeometry>
        </mxCell>
        <mxCell id="9oo5o4xEghoSklG43QRZ-6" style="edgeStyle=none;rounded=0;orthogonalLoop=1;jettySize=auto;html=1;exitX=0.5;exitY=1;exitDx=0;exitDy=0;endArrow=none;endFill=0;fontSize=12;" edge="1" parent="9oo5o4xEghoSklG43QRZ-1" source="9oo5o4xEghoSklG43QRZ-2">
          <mxGeometry x="90" as="geometry">
            <mxPoint x="110" y="80" as="targetPoint" />
          </mxGeometry>
        </mxCell>
        <mxCell id="9oo5o4xEghoSklG43QRZ-5" value="RE_BSUSP" style="text;html=1;strokeColor=none;fillColor=none;align=left;verticalAlign=middle;rounded=0;fontSize=12;container=0;" vertex="1" parent="9oo5o4xEghoSklG43QRZ-1">
          <mxGeometry x="130" y="50" width="40" height="20" as="geometry" />
        </mxCell>
        <mxCell id="9oo5o4xEghoSklG43QRZ-3" value="1" style="rounded=0;whiteSpace=wrap;html=1;fontSize=20;align=center;gradientColor=#97d077;fillColor=none;imageWidth=20;imageHeight=20;container=0;" vertex="1" parent="9oo5o4xEghoSklG43QRZ-1">
          <mxGeometry x="92" y="2" width="36" height="36" as="geometry" />
        </mxCell>
        <mxCell id="9oo5o4xEghoSklG43QRZ-26" value="&lt;b&gt;Legenda&lt;/b&gt;" style="text;html=1;align=center;verticalAlign=middle;resizable=0;points=[];autosize=1;strokeColor=none;fillColor=none;" vertex="1" parent="1">
          <mxGeometry x="303" y="-1445" width="70" height="30" as="geometry" />
        </mxCell>
        <mxCell id="9oo5o4xEghoSklG43QRZ-25" value="G1 - Representa o grafcet sobre a célula de entrada" style="text;html=1;align=center;verticalAlign=middle;resizable=0;points=[];autosize=1;strokeColor=none;fillColor=none;" vertex="1" parent="1">
          <mxGeometry x="188" y="-1405" width="300" height="30" as="geometry" />
        </mxCell>
        <mxCell id="9oo5o4xEghoSklG43QRZ-93" value="" style="rounded=0;whiteSpace=wrap;html=1;fontSize=20;align=center;fillColor=#97D077;container=0;" vertex="1" parent="1">
          <mxGeometry x="278" y="-830" width="40" height="40" as="geometry" />
        </mxCell>
        <mxCell id="9oo5o4xEghoSklG43QRZ-94" value="10" style="rounded=0;whiteSpace=wrap;html=1;fontSize=20;align=center;gradientColor=#97d077;fillColor=none;imageWidth=20;imageHeight=20;container=0;" vertex="1" parent="1">
          <mxGeometry x="280" y="-828" width="36" height="36" as="geometry" />
        </mxCell>
        <mxCell id="9oo5o4xEghoSklG43QRZ-95" value="" style="endArrow=none;html=1;fontSize=12;rounded=0;" edge="1" parent="1">
          <mxGeometry x="138" y="250" width="50" height="50" as="geometry">
            <mxPoint x="288" y="-770" as="sourcePoint" />
            <mxPoint x="308" y="-770" as="targetPoint" />
          </mxGeometry>
        </mxCell>
        <mxCell id="9oo5o4xEghoSklG43QRZ-96" value="RE_BSUSP" style="text;html=1;strokeColor=none;fillColor=none;align=left;verticalAlign=middle;rounded=0;fontSize=12;container=0;" vertex="1" parent="1">
          <mxGeometry x="318" y="-780" width="40" height="20" as="geometry" />
        </mxCell>
        <mxCell id="9oo5o4xEghoSklG43QRZ-97" style="edgeStyle=none;rounded=0;orthogonalLoop=1;jettySize=auto;html=1;exitX=0.5;exitY=1;exitDx=0;exitDy=0;endArrow=none;endFill=0;fontSize=12;" edge="1" parent="1" source="9oo5o4xEghoSklG43QRZ-93">
          <mxGeometry x="138" y="250" as="geometry">
            <mxPoint x="298" y="-750" as="targetPoint" />
          </mxGeometry>
        </mxCell>
        <mxCell id="9oo5o4xEghoSklG43QRZ-98" value="" style="group" vertex="1" connectable="0" parent="1">
          <mxGeometry x="140" y="-730" width="230" height="80" as="geometry" />
        </mxCell>
        <mxCell id="9oo5o4xEghoSklG43QRZ-99" value="11" style="rounded=0;whiteSpace=wrap;html=1;fontSize=20;align=center;fillColor=#fff2cc;startSize=20;strokeColor=#000000;" vertex="1" parent="9oo5o4xEghoSklG43QRZ-98">
          <mxGeometry x="140" y="-20" width="40" height="40" as="geometry" />
        </mxCell>
        <mxCell id="9oo5o4xEghoSklG43QRZ-100" value="" style="endArrow=none;html=1;fontSize=12;rounded=0;" edge="1" parent="9oo5o4xEghoSklG43QRZ-98">
          <mxGeometry x="140" y="-20" width="50" height="50" as="geometry">
            <mxPoint x="150" y="40" as="sourcePoint" />
            <mxPoint x="170" y="40" as="targetPoint" />
          </mxGeometry>
        </mxCell>
        <mxCell id="9oo5o4xEghoSklG43QRZ-101" value="2s/11" style="text;html=1;strokeColor=none;fillColor=none;align=left;verticalAlign=middle;rounded=0;fontSize=12;startSize=20;" vertex="1" parent="9oo5o4xEghoSklG43QRZ-98">
          <mxGeometry x="180" y="30" width="40" height="20" as="geometry" />
        </mxCell>
        <mxCell id="9oo5o4xEghoSklG43QRZ-102" style="edgeStyle=none;rounded=0;orthogonalLoop=1;jettySize=auto;html=1;exitX=0.5;exitY=1;exitDx=0;exitDy=0;endArrow=none;endFill=0;fontSize=12;" edge="1" parent="9oo5o4xEghoSklG43QRZ-98" source="9oo5o4xEghoSklG43QRZ-99">
          <mxGeometry x="140" y="-20" as="geometry">
            <mxPoint x="160" y="60" as="targetPoint" />
          </mxGeometry>
        </mxCell>
        <mxCell id="9oo5o4xEghoSklG43QRZ-103" style="edgeStyle=none;rounded=0;orthogonalLoop=1;jettySize=auto;html=1;exitX=1;exitY=0.5;exitDx=0;exitDy=0;fontSize=12;endArrow=none;endFill=0;entryX=0;entryY=0.5;entryDx=0;entryDy=0;" edge="1" parent="9oo5o4xEghoSklG43QRZ-98" source="9oo5o4xEghoSklG43QRZ-99">
          <mxGeometry x="140" y="-20" as="geometry">
            <mxPoint x="198" as="targetPoint" />
          </mxGeometry>
        </mxCell>
        <mxCell id="9oo5o4xEghoSklG43QRZ-121" value="LSUSP" style="text;html=1;fillColor=none;align=left;verticalAlign=middle;spacingLeft=4;spacingRight=4;whiteSpace=wrap;overflow=hidden;rotatable=0;points=[[0,0.5],[1,0.5]];portConstraint=eastwest;fontSize=10;spacing=0;strokeColor=#000000;" vertex="1" parent="9oo5o4xEghoSklG43QRZ-98">
          <mxGeometry x="198" y="-10" width="150" height="20" as="geometry" />
        </mxCell>
        <mxCell id="9oo5o4xEghoSklG43QRZ-108" value="" style="endArrow=none;html=1;rounded=0;" edge="1" parent="1">
          <mxGeometry width="50" height="50" relative="1" as="geometry">
            <mxPoint x="178" y="-780" as="sourcePoint" />
            <mxPoint x="284" y="-780" as="targetPoint" />
          </mxGeometry>
        </mxCell>
        <mxCell id="9oo5o4xEghoSklG43QRZ-109" value="" style="endArrow=classic;html=1;rounded=0;" edge="1" parent="1">
          <mxGeometry width="50" height="50" relative="1" as="geometry">
            <mxPoint x="284" y="-780" as="sourcePoint" />
            <mxPoint x="284" y="-750" as="targetPoint" />
          </mxGeometry>
        </mxCell>
        <mxCell id="9oo5o4xEghoSklG43QRZ-110" value="" style="group" vertex="1" connectable="0" parent="1">
          <mxGeometry x="278" y="-670" width="210" height="80" as="geometry" />
        </mxCell>
        <mxCell id="9oo5o4xEghoSklG43QRZ-111" value="12" style="rounded=0;whiteSpace=wrap;html=1;fontSize=20;align=center;fillColor=#fff2cc;startSize=20;strokeColor=#000000;" vertex="1" parent="9oo5o4xEghoSklG43QRZ-110">
          <mxGeometry width="40" height="40" as="geometry" />
        </mxCell>
        <mxCell id="9oo5o4xEghoSklG43QRZ-133" value="" style="endArrow=none;html=1;fontSize=12;rounded=0;" edge="1" parent="1">
          <mxGeometry width="50" height="50" relative="1" as="geometry">
            <mxPoint x="288" y="-570" as="sourcePoint" />
            <mxPoint x="308" y="-570" as="targetPoint" />
          </mxGeometry>
        </mxCell>
        <mxCell id="9oo5o4xEghoSklG43QRZ-134" value="RE_BSUSP" style="text;html=1;strokeColor=none;fillColor=none;align=left;verticalAlign=middle;rounded=0;fontSize=12;" vertex="1" parent="1">
          <mxGeometry x="318" y="-580" width="40" height="20" as="geometry" />
        </mxCell>
        <mxCell id="9oo5o4xEghoSklG43QRZ-135" style="edgeStyle=none;rounded=0;orthogonalLoop=1;jettySize=auto;html=1;exitX=0.5;exitY=1;exitDx=0;exitDy=0;endArrow=none;endFill=0;fontSize=12;" edge="1" parent="1">
          <mxGeometry relative="1" as="geometry">
            <mxPoint x="298" y="-550" as="targetPoint" />
            <mxPoint x="298" y="-630" as="sourcePoint" />
          </mxGeometry>
        </mxCell>
        <mxCell id="9oo5o4xEghoSklG43QRZ-136" style="edgeStyle=none;rounded=0;orthogonalLoop=1;jettySize=auto;html=1;endArrow=none;endFill=0;fontSize=12;" edge="1" parent="1">
          <mxGeometry relative="1" as="geometry">
            <mxPoint x="178" y="-590" as="targetPoint" />
            <mxPoint x="178" y="-660" as="sourcePoint" />
          </mxGeometry>
        </mxCell>
        <mxCell id="9oo5o4xEghoSklG43QRZ-137" value="2s/12" style="text;html=1;strokeColor=none;fillColor=none;align=left;verticalAlign=middle;rounded=0;fontSize=12;" vertex="1" parent="1">
          <mxGeometry x="198" y="-620" width="40" height="20" as="geometry" />
        </mxCell>
        <mxCell id="9oo5o4xEghoSklG43QRZ-138" style="edgeStyle=none;rounded=0;orthogonalLoop=1;jettySize=auto;html=1;endArrow=none;endFill=0;fontSize=12;" edge="1" parent="1">
          <mxGeometry relative="1" as="geometry">
            <mxPoint x="298" y="-590" as="targetPoint" />
            <mxPoint x="178" y="-590" as="sourcePoint" />
          </mxGeometry>
        </mxCell>
        <mxCell id="9oo5o4xEghoSklG43QRZ-140" value="" style="endArrow=none;html=1;fontSize=12;rounded=0;" edge="1" parent="1">
          <mxGeometry width="50" height="50" relative="1" as="geometry">
            <mxPoint x="168" y="-610" as="sourcePoint" />
            <mxPoint x="188" y="-610" as="targetPoint" />
          </mxGeometry>
        </mxCell>
        <mxCell id="9oo5o4xEghoSklG43QRZ-142" value="" style="endArrow=none;html=1;rounded=0;" edge="1" parent="1">
          <mxGeometry width="50" height="50" relative="1" as="geometry">
            <mxPoint x="158" y="-550" as="sourcePoint" />
            <mxPoint x="298" y="-550" as="targetPoint" />
          </mxGeometry>
        </mxCell>
        <mxCell id="9oo5o4xEghoSklG43QRZ-143" value="" style="endArrow=none;html=1;rounded=0;" edge="1" parent="1">
          <mxGeometry width="50" height="50" relative="1" as="geometry">
            <mxPoint x="158" y="-550" as="sourcePoint" />
            <mxPoint x="158" y="-850" as="targetPoint" />
          </mxGeometry>
        </mxCell>
        <mxCell id="9oo5o4xEghoSklG43QRZ-144" value="" style="endArrow=none;html=1;rounded=0;" edge="1" parent="1">
          <mxGeometry width="50" height="50" relative="1" as="geometry">
            <mxPoint x="158" y="-850" as="sourcePoint" />
            <mxPoint x="298" y="-850" as="targetPoint" />
          </mxGeometry>
        </mxCell>
        <mxCell id="9oo5o4xEghoSklG43QRZ-145" value="" style="endArrow=classic;html=1;rounded=0;" edge="1" parent="1">
          <mxGeometry width="50" height="50" relative="1" as="geometry">
            <mxPoint x="297.76" y="-850" as="sourcePoint" />
            <mxPoint x="298" y="-830" as="targetPoint" />
          </mxGeometry>
        </mxCell>
        <mxCell id="9oo5o4xEghoSklG43QRZ-146" value="" style="group" vertex="1" connectable="0" parent="1">
          <mxGeometry x="188" y="-690" width="55" height="20" as="geometry" />
        </mxCell>
        <mxCell id="9oo5o4xEghoSklG43QRZ-147" value="" style="endArrow=none;html=1;fontSize=12;rounded=0;" edge="1" parent="9oo5o4xEghoSklG43QRZ-146">
          <mxGeometry width="50" height="50" relative="1" as="geometry">
            <mxPoint y="10" as="sourcePoint" />
            <mxPoint x="10" y="10" as="targetPoint" />
          </mxGeometry>
        </mxCell>
        <object label="RE_BSUSP" id="9oo5o4xEghoSklG43QRZ-148">
          <mxCell style="text;html=1;strokeColor=none;fillColor=none;align=left;verticalAlign=middle;rounded=0;fontSize=12;" vertex="1" parent="9oo5o4xEghoSklG43QRZ-146">
            <mxGeometry x="15" width="40" height="20" as="geometry" />
          </mxCell>
        </object>
        <mxCell id="9oo5o4xEghoSklG43QRZ-149" value="" style="endArrow=none;html=1;fontSize=12;rounded=0;" edge="1" parent="9oo5o4xEghoSklG43QRZ-146">
          <mxGeometry width="50" height="50" relative="1" as="geometry">
            <mxPoint x="5" as="sourcePoint" />
            <mxPoint x="5" y="20" as="targetPoint" />
          </mxGeometry>
        </mxCell>
        <mxCell id="9oo5o4xEghoSklG43QRZ-150" value="" style="endArrow=none;html=1;rounded=0;" edge="1" parent="1">
          <mxGeometry width="50" height="50" relative="1" as="geometry">
            <mxPoint x="300" y="-696" as="sourcePoint" />
            <mxPoint x="193" y="-696" as="targetPoint" />
          </mxGeometry>
        </mxCell>
        <mxCell id="9oo5o4xEghoSklG43QRZ-152" value="" style="endArrow=none;html=1;rounded=0;" edge="1" parent="1">
          <mxGeometry width="50" height="50" relative="1" as="geometry">
            <mxPoint x="193" y="-696" as="sourcePoint" />
            <mxPoint x="193" y="-690" as="targetPoint" />
          </mxGeometry>
        </mxCell>
        <mxCell id="9oo5o4xEghoSklG43QRZ-153" value="" style="endArrow=none;html=1;rounded=0;" edge="1" parent="1">
          <mxGeometry width="50" height="50" relative="1" as="geometry">
            <mxPoint x="158" y="-670" as="sourcePoint" />
            <mxPoint x="193" y="-670" as="targetPoint" />
          </mxGeometry>
        </mxCell>
        <mxCell id="9oo5o4xEghoSklG43QRZ-154" value="" style="endArrow=none;dashed=1;html=1;rounded=0;" edge="1" parent="1">
          <mxGeometry width="50" height="50" relative="1" as="geometry">
            <mxPoint x="178" y="-660" as="sourcePoint" />
            <mxPoint x="178" y="-680" as="targetPoint" />
          </mxGeometry>
        </mxCell>
        <mxCell id="9oo5o4xEghoSklG43QRZ-155" value="" style="endArrow=none;html=1;rounded=0;" edge="1" parent="1">
          <mxGeometry width="50" height="50" relative="1" as="geometry">
            <mxPoint x="178" y="-680" as="sourcePoint" />
            <mxPoint x="178" y="-780" as="targetPoint" />
          </mxGeometry>
        </mxCell>
        <mxCell id="9oo5o4xEghoSklG43QRZ-43" value="" style="group" vertex="1" connectable="0" parent="1">
          <mxGeometry x="230" y="-1000" width="230" height="80" as="geometry" />
        </mxCell>
        <mxCell id="9oo5o4xEghoSklG43QRZ-44" value="2" style="rounded=0;whiteSpace=wrap;html=1;fontSize=20;align=center;fillColor=#fff2cc;startSize=20;strokeColor=#000000;" vertex="1" parent="9oo5o4xEghoSklG43QRZ-43">
          <mxGeometry width="40" height="40" as="geometry" />
        </mxCell>
        <mxCell id="9oo5o4xEghoSklG43QRZ-45" value="" style="endArrow=none;html=1;fontSize=12;rounded=0;" edge="1" parent="9oo5o4xEghoSklG43QRZ-43">
          <mxGeometry width="50" height="50" as="geometry">
            <mxPoint x="10" y="60" as="sourcePoint" />
            <mxPoint x="30" y="60" as="targetPoint" />
          </mxGeometry>
        </mxCell>
        <mxCell id="9oo5o4xEghoSklG43QRZ-46" value="RE_BSUSP" style="text;html=1;strokeColor=none;fillColor=none;align=left;verticalAlign=middle;rounded=0;fontSize=12;startSize=20;" vertex="1" parent="9oo5o4xEghoSklG43QRZ-43">
          <mxGeometry x="40" y="50" width="40" height="20" as="geometry" />
        </mxCell>
        <mxCell id="9oo5o4xEghoSklG43QRZ-47" style="edgeStyle=none;rounded=0;orthogonalLoop=1;jettySize=auto;html=1;exitX=0.5;exitY=1;exitDx=0;exitDy=0;endArrow=none;endFill=0;fontSize=12;" edge="1" parent="9oo5o4xEghoSklG43QRZ-43" source="9oo5o4xEghoSklG43QRZ-44">
          <mxGeometry as="geometry">
            <mxPoint x="20" y="80" as="targetPoint" />
          </mxGeometry>
        </mxCell>
        <mxCell id="9oo5o4xEghoSklG43QRZ-48" style="edgeStyle=none;rounded=0;orthogonalLoop=1;jettySize=auto;html=1;exitX=1;exitY=0.5;exitDx=0;exitDy=0;fontSize=12;endArrow=none;endFill=0;entryX=0;entryY=0.5;entryDx=0;entryDy=0;" edge="1" parent="9oo5o4xEghoSklG43QRZ-43" source="9oo5o4xEghoSklG43QRZ-44">
          <mxGeometry as="geometry">
            <mxPoint x="58" y="20" as="targetPoint" />
          </mxGeometry>
        </mxCell>
        <mxCell id="9oo5o4xEghoSklG43QRZ-69" value="" style="rounded=0;whiteSpace=wrap;html=1;" vertex="1" parent="9oo5o4xEghoSklG43QRZ-43">
          <mxGeometry x="57" y="5" width="133.5" height="25" as="geometry" />
        </mxCell>
        <mxCell id="9oo5o4xEghoSklG43QRZ-67" value="G1{*}" style="text;html=1;fillColor=none;align=left;verticalAlign=middle;spacingLeft=4;spacingRight=4;whiteSpace=wrap;overflow=hidden;rotatable=0;points=[[0,0.5],[1,0.5]];portConstraint=eastwest;fontSize=10;spacing=0;strokeColor=#000000;" vertex="1" parent="9oo5o4xEghoSklG43QRZ-43">
          <mxGeometry x="59.75" y="8.97" width="128" height="17.07" as="geometry" />
        </mxCell>
        <mxCell id="9oo5o4xEghoSklG43QRZ-89" value="" style="endArrow=none;html=1;rounded=0;" edge="1" parent="1">
          <mxGeometry width="50" height="50" relative="1" as="geometry">
            <mxPoint x="160" y="-920.48" as="sourcePoint" />
            <mxPoint x="250" y="-920.48" as="targetPoint" />
          </mxGeometry>
        </mxCell>
        <mxCell id="9oo5o4xEghoSklG43QRZ-90" value="" style="endArrow=none;html=1;rounded=0;" edge="1" parent="1">
          <mxGeometry width="50" height="50" relative="1" as="geometry">
            <mxPoint x="160" y="-920.48" as="sourcePoint" />
            <mxPoint x="160" y="-1120" as="targetPoint" />
          </mxGeometry>
        </mxCell>
        <mxCell id="9oo5o4xEghoSklG43QRZ-91" value="" style="endArrow=none;html=1;rounded=0;" edge="1" parent="1">
          <mxGeometry width="50" height="50" relative="1" as="geometry">
            <mxPoint x="160" y="-1120" as="sourcePoint" />
            <mxPoint x="250" y="-1120" as="targetPoint" />
          </mxGeometry>
        </mxCell>
        <mxCell id="9oo5o4xEghoSklG43QRZ-92" value="" style="endArrow=classic;html=1;rounded=0;" edge="1" parent="1">
          <mxGeometry width="50" height="50" relative="1" as="geometry">
            <mxPoint x="250" y="-1120" as="sourcePoint" />
            <mxPoint x="250" y="-1080" as="targetPoint" />
          </mxGeometry>
        </mxCell>
        <mxCell id="9oo5o4xEghoSklG43QRZ-159" value="&lt;b&gt;SUSPENSÃO&lt;/b&gt;" style="text;html=1;align=center;verticalAlign=middle;resizable=0;points=[];autosize=1;strokeColor=none;fillColor=none;" vertex="1" parent="1">
          <mxGeometry x="60" y="-1240" width="100" height="30" as="geometry" />
        </mxCell>
        <mxCell id="9oo5o4xEghoSklG43QRZ-162" value="&lt;b style=&quot;border-color: var(--border-color);&quot;&gt;PARAGEM DE EMERGÊNCIA&lt;/b&gt;" style="text;html=1;align=center;verticalAlign=middle;resizable=0;points=[];autosize=1;strokeColor=none;fillColor=none;" vertex="1" parent="1">
          <mxGeometry x="650" y="-1240" width="190" height="30" as="geometry" />
        </mxCell>
        <mxCell id="9oo5o4xEghoSklG43QRZ-181" value="" style="group" vertex="1" connectable="0" parent="1">
          <mxGeometry x="770" y="-1059" width="210" height="80" as="geometry" />
        </mxCell>
        <mxCell id="9oo5o4xEghoSklG43QRZ-182" value="21" style="rounded=0;whiteSpace=wrap;html=1;fontSize=20;align=center;fillColor=#fff2cc;startSize=20;strokeColor=#000000;" vertex="1" parent="9oo5o4xEghoSklG43QRZ-181">
          <mxGeometry width="40" height="40" as="geometry" />
        </mxCell>
        <mxCell id="9oo5o4xEghoSklG43QRZ-183" value="" style="endArrow=none;html=1;fontSize=12;rounded=0;" edge="1" parent="9oo5o4xEghoSklG43QRZ-181">
          <mxGeometry width="50" height="50" as="geometry">
            <mxPoint x="10" y="60" as="sourcePoint" />
            <mxPoint x="30" y="60" as="targetPoint" />
          </mxGeometry>
        </mxCell>
        <mxCell id="9oo5o4xEghoSklG43QRZ-184" value="LE_BEMG" style="text;html=1;strokeColor=none;fillColor=none;align=left;verticalAlign=middle;rounded=0;fontSize=12;startSize=20;" vertex="1" parent="9oo5o4xEghoSklG43QRZ-181">
          <mxGeometry x="40" y="50" width="40" height="20" as="geometry" />
        </mxCell>
        <mxCell id="9oo5o4xEghoSklG43QRZ-185" style="edgeStyle=none;rounded=0;orthogonalLoop=1;jettySize=auto;html=1;exitX=0.5;exitY=1;exitDx=0;exitDy=0;endArrow=none;endFill=0;fontSize=12;" edge="1" parent="9oo5o4xEghoSklG43QRZ-181" source="9oo5o4xEghoSklG43QRZ-182">
          <mxGeometry as="geometry">
            <mxPoint x="20" y="80" as="targetPoint" />
          </mxGeometry>
        </mxCell>
        <mxCell id="9oo5o4xEghoSklG43QRZ-186" style="edgeStyle=none;rounded=0;orthogonalLoop=1;jettySize=auto;html=1;exitX=1;exitY=0.5;exitDx=0;exitDy=0;fontSize=12;endArrow=none;endFill=0;entryX=0;entryY=0.5;entryDx=0;entryDy=0;" edge="1" parent="9oo5o4xEghoSklG43QRZ-181" source="9oo5o4xEghoSklG43QRZ-182">
          <mxGeometry as="geometry">
            <mxPoint x="58.00000000000023" y="20" as="targetPoint" />
          </mxGeometry>
        </mxCell>
        <mxCell id="9oo5o4xEghoSklG43QRZ-192" value="LEMG" style="text;html=1;fillColor=none;align=left;verticalAlign=middle;spacingLeft=4;spacingRight=4;whiteSpace=wrap;overflow=hidden;rotatable=0;points=[[0,0.5],[1,0.5]];portConstraint=eastwest;fontSize=10;spacing=0;strokeColor=#000000;" vertex="1" parent="1">
          <mxGeometry x="829" y="-1049" width="101" height="19.86" as="geometry" />
        </mxCell>
        <mxCell id="9oo5o4xEghoSklG43QRZ-193" value="" style="endArrow=none;html=1;rounded=0;" edge="1" parent="1">
          <mxGeometry width="50" height="50" relative="1" as="geometry">
            <mxPoint x="700" y="-979.8299999999999" as="sourcePoint" />
            <mxPoint x="790" y="-979.8299999999999" as="targetPoint" />
          </mxGeometry>
        </mxCell>
        <mxCell id="9oo5o4xEghoSklG43QRZ-194" value="" style="endArrow=none;html=1;rounded=0;" edge="1" parent="1">
          <mxGeometry width="50" height="50" relative="1" as="geometry">
            <mxPoint x="700" y="-979.8299999999999" as="sourcePoint" />
            <mxPoint x="700" y="-1169" as="targetPoint" />
          </mxGeometry>
        </mxCell>
        <mxCell id="9oo5o4xEghoSklG43QRZ-195" value="" style="endArrow=none;html=1;rounded=0;" edge="1" parent="1">
          <mxGeometry width="50" height="50" relative="1" as="geometry">
            <mxPoint x="700" y="-1169" as="sourcePoint" />
            <mxPoint x="790" y="-1169" as="targetPoint" />
          </mxGeometry>
        </mxCell>
        <mxCell id="9oo5o4xEghoSklG43QRZ-196" value="" style="endArrow=classic;html=1;rounded=0;" edge="1" parent="1">
          <mxGeometry width="50" height="50" relative="1" as="geometry">
            <mxPoint x="790" y="-1169" as="sourcePoint" />
            <mxPoint x="790" y="-1139" as="targetPoint" />
          </mxGeometry>
        </mxCell>
        <mxCell id="9oo5o4xEghoSklG43QRZ-197" value="" style="group" vertex="1" connectable="0" parent="1">
          <mxGeometry x="700" y="-440" width="212" height="80" as="geometry" />
        </mxCell>
        <mxCell id="9oo5o4xEghoSklG43QRZ-198" value="" style="rounded=0;whiteSpace=wrap;html=1;fontSize=20;align=center;fillColor=#97D077;container=0;" vertex="1" parent="9oo5o4xEghoSklG43QRZ-197">
          <mxGeometry width="40" height="40" as="geometry" />
        </mxCell>
        <mxCell id="9oo5o4xEghoSklG43QRZ-199" value="100" style="rounded=0;whiteSpace=wrap;html=1;fontSize=20;align=center;gradientColor=#97d077;fillColor=none;imageWidth=20;imageHeight=20;container=0;" vertex="1" parent="9oo5o4xEghoSklG43QRZ-197">
          <mxGeometry x="2" y="2" width="36" height="36" as="geometry" />
        </mxCell>
        <mxCell id="9oo5o4xEghoSklG43QRZ-200" value="" style="endArrow=none;html=1;fontSize=12;rounded=0;" edge="1" parent="9oo5o4xEghoSklG43QRZ-197">
          <mxGeometry width="50" height="50" as="geometry">
            <mxPoint x="10" y="60" as="sourcePoint" />
            <mxPoint x="30" y="60" as="targetPoint" />
          </mxGeometry>
        </mxCell>
        <mxCell id="9oo5o4xEghoSklG43QRZ-201" value="RE_BEMG" style="text;html=1;strokeColor=none;fillColor=none;align=left;verticalAlign=middle;rounded=0;fontSize=12;container=0;" vertex="1" parent="9oo5o4xEghoSklG43QRZ-197">
          <mxGeometry x="40" y="50" width="40" height="20" as="geometry" />
        </mxCell>
        <mxCell id="9oo5o4xEghoSklG43QRZ-202" style="edgeStyle=none;rounded=0;orthogonalLoop=1;jettySize=auto;html=1;exitX=0.5;exitY=1;exitDx=0;exitDy=0;endArrow=none;endFill=0;fontSize=12;" edge="1" parent="9oo5o4xEghoSklG43QRZ-197" source="9oo5o4xEghoSklG43QRZ-198">
          <mxGeometry as="geometry">
            <mxPoint x="20" y="80" as="targetPoint" />
          </mxGeometry>
        </mxCell>
        <object label="" id="9oo5o4xEghoSklG43QRZ-228">
          <mxCell style="group" vertex="1" connectable="0" parent="1">
            <mxGeometry x="590" y="-360" width="310" height="200" as="geometry" />
          </mxCell>
        </object>
        <mxCell id="9oo5o4xEghoSklG43QRZ-229" value="" style="group" vertex="1" connectable="0" parent="9oo5o4xEghoSklG43QRZ-228">
          <mxGeometry width="310" height="140" as="geometry" />
        </mxCell>
        <mxCell id="9oo5o4xEghoSklG43QRZ-233" style="edgeStyle=none;rounded=0;orthogonalLoop=1;jettySize=auto;html=1;endArrow=none;endFill=0;fontSize=12;strokeWidth=3;" edge="1" parent="9oo5o4xEghoSklG43QRZ-229">
          <mxGeometry relative="1" as="geometry">
            <mxPoint x="-10" y="40" as="targetPoint" />
            <mxPoint x="270" y="40" as="sourcePoint" />
            <Array as="points" />
          </mxGeometry>
        </mxCell>
        <mxCell id="9oo5o4xEghoSklG43QRZ-237" style="edgeStyle=none;rounded=0;orthogonalLoop=1;jettySize=auto;html=1;exitX=0.5;exitY=1;exitDx=0;exitDy=0;endArrow=none;endFill=0;fontSize=12;" edge="1" parent="9oo5o4xEghoSklG43QRZ-229">
          <mxGeometry relative="1" as="geometry">
            <mxPoint x="130" y="40" as="targetPoint" />
            <mxPoint x="130" as="sourcePoint" />
          </mxGeometry>
        </mxCell>
        <mxCell id="9oo5o4xEghoSklG43QRZ-247" value="" style="group" vertex="1" connectable="0" parent="9oo5o4xEghoSklG43QRZ-229">
          <mxGeometry x="-20" y="60" width="210" height="80" as="geometry" />
        </mxCell>
        <mxCell id="9oo5o4xEghoSklG43QRZ-248" value="002" style="rounded=0;whiteSpace=wrap;html=1;fontSize=20;align=center;fillColor=#fff2cc;startSize=20;strokeColor=#000000;" vertex="1" parent="9oo5o4xEghoSklG43QRZ-247">
          <mxGeometry width="40" height="40" as="geometry" />
        </mxCell>
        <mxCell id="9oo5o4xEghoSklG43QRZ-249" value="" style="endArrow=none;html=1;fontSize=12;rounded=0;" edge="1" parent="9oo5o4xEghoSklG43QRZ-247">
          <mxGeometry width="50" height="50" as="geometry">
            <mxPoint x="10" y="60" as="sourcePoint" />
            <mxPoint x="30" y="60" as="targetPoint" />
          </mxGeometry>
        </mxCell>
        <mxCell id="9oo5o4xEghoSklG43QRZ-250" value="Voorwaarde" style="text;html=1;strokeColor=none;fillColor=none;align=left;verticalAlign=middle;rounded=0;fontSize=12;startSize=20;" vertex="1" parent="9oo5o4xEghoSklG43QRZ-247">
          <mxGeometry x="40" y="50" width="40" height="20" as="geometry" />
        </mxCell>
        <mxCell id="9oo5o4xEghoSklG43QRZ-251" style="edgeStyle=none;rounded=0;orthogonalLoop=1;jettySize=auto;html=1;exitX=0.5;exitY=1;exitDx=0;exitDy=0;endArrow=none;endFill=0;fontSize=12;" edge="1" parent="9oo5o4xEghoSklG43QRZ-247" source="9oo5o4xEghoSklG43QRZ-248">
          <mxGeometry as="geometry">
            <mxPoint x="20" y="80" as="targetPoint" />
          </mxGeometry>
        </mxCell>
        <mxCell id="9oo5o4xEghoSklG43QRZ-252" style="edgeStyle=none;rounded=0;orthogonalLoop=1;jettySize=auto;html=1;exitX=1;exitY=0.5;exitDx=0;exitDy=0;fontSize=12;endArrow=none;endFill=0;entryX=0;entryY=0.5;entryDx=0;entryDy=0;" edge="1" parent="9oo5o4xEghoSklG43QRZ-247" source="9oo5o4xEghoSklG43QRZ-248">
          <mxGeometry as="geometry">
            <mxPoint x="58" y="20" as="targetPoint" />
          </mxGeometry>
        </mxCell>
        <mxCell id="9oo5o4xEghoSklG43QRZ-258" value="G2{*}" style="text;html=1;fillColor=none;align=left;verticalAlign=middle;spacingLeft=4;spacingRight=4;whiteSpace=wrap;overflow=hidden;rotatable=0;points=[[0,0.5],[1,0.5]];portConstraint=eastwest;fontSize=10;spacing=0;strokeColor=#000000;" vertex="1" parent="9oo5o4xEghoSklG43QRZ-247">
          <mxGeometry x="58" y="10" width="152" height="20.26" as="geometry" />
        </mxCell>
        <mxCell id="9oo5o4xEghoSklG43QRZ-259" value="" style="endArrow=none;html=1;rounded=0;exitX=0.5;exitY=0;exitDx=0;exitDy=0;" edge="1" parent="9oo5o4xEghoSklG43QRZ-229" source="9oo5o4xEghoSklG43QRZ-248">
          <mxGeometry width="50" height="50" relative="1" as="geometry">
            <mxPoint x="70" y="80" as="sourcePoint" />
            <mxPoint y="40" as="targetPoint" />
          </mxGeometry>
        </mxCell>
        <mxCell id="9oo5o4xEghoSklG43QRZ-238" value="" style="group" vertex="1" connectable="0" parent="1">
          <mxGeometry x="590" y="20" width="310" height="80" as="geometry" />
        </mxCell>
        <mxCell id="9oo5o4xEghoSklG43QRZ-242" style="edgeStyle=none;rounded=0;orthogonalLoop=1;jettySize=auto;html=1;endArrow=none;endFill=0;fontSize=12;strokeWidth=3;" edge="1" parent="9oo5o4xEghoSklG43QRZ-238">
          <mxGeometry relative="1" as="geometry">
            <mxPoint x="-10" y="40" as="targetPoint" />
            <mxPoint x="270" y="40" as="sourcePoint" />
            <Array as="points" />
          </mxGeometry>
        </mxCell>
        <mxCell id="9oo5o4xEghoSklG43QRZ-246" style="edgeStyle=none;rounded=0;orthogonalLoop=1;jettySize=auto;html=1;exitX=0.5;exitY=1;exitDx=0;exitDy=0;endArrow=none;endFill=0;fontSize=12;" edge="1" parent="9oo5o4xEghoSklG43QRZ-238">
          <mxGeometry relative="1" as="geometry">
            <mxPoint x="130" y="80" as="targetPoint" />
            <mxPoint x="130" y="40" as="sourcePoint" />
          </mxGeometry>
        </mxCell>
      </root>
    </mxGraphModel>
  </diagram>
</mxfile>
